#!OML:ASF H:\Punching\Project 1\Capture day 1\Session 1\female.ASF
:FULLY-SPECIFIED
:DEGREES
2177
root -0.950348 14.895 -2.60562 21.9097 -38.0357 -7.66838
lowerback -1.24353 0.123802 4.16916
upperback -7.24371 0.0615235 -2.3599
thorax -6.86832 -0.344308 -4.81764
lowerneck 2.64346 16.5383 24.8136
upperneck 7.91522 24.9327 -23.5211
head 8.28061 12.3283 -8.92307
rclavicle -4.69629e-014 -9.54166e-015
rhumerus 0.0684325 29.8311 -71.9198
rradius 127.039
rwrist -10.0845
rhand -31.2266 9.3548
rfingers 7.12502
rthumb -4.50197 -20.5774
lclavicle -4.69629e-014 -9.54166e-015
lhumerus -4.93919 0.4312 54.579
lradius 141.125
lwrist 0.704978
lhand -29.1814 5.80762
lfingers 7.12502
lthumb -2.52694 35.7724
rfemur -9.31015 7.46355 20.5992
rtibia 25.1852
rfoot -28.7643 -24.0014
rtoes -9.44641
lfemur -50.9588 5.60973 4.19999
ltibia 43.1955
lfoot -3.66012 27.1649
ltoes 27.4638
2178
root -0.951875 14.8868 -2.58488 21.8696 -37.4885 -7.60753
lowerback -1.3996 0.21019 4.26693
upperback -7.34171 0.180075 -2.26169
thorax -6.87052 -0.290041 -4.77404
lowerneck 2.41607 16.4104 24.6693
upperneck 8.44453 24.7581 -23.2677
head 8.38675 12.2251 -8.84351
rclavicle 4.90004e-014 7.63333e-014
rhumerus 0.141375 29.9649 -72.0977
rradius 126.911
rwrist -10.159
rhand -30.9395 9.02505
rfingers 7.12502
rthumb -4.22467 -20.9128
lclavicle 4.90004e-014 7.63333e-014
lhumerus -5.61235 0.463933 54.5485
lradius 141.299
lwrist 0.646137
lhand -29.1334 5.52302
lfingers 7.12502
lthumb -2.48051 35.4883
rfemur -9.01636 7.55188 20.7481
rtibia 24.9911
rfoot -28.9028 -24.5266
rtoes -9.23536
lfemur -51.3683 6.03549 3.75949
ltibia 43.406
lfoot -2.91816 26.5428
ltoes 26.3126
2179
root -0.952815 14.8762 -2.56027 21.8285 -36.9079 -7.56004
lowerback -1.55471 0.294845 4.38633
upperback -7.44465 0.296676 -2.16149
thorax -6.87925 -0.238348 -4.74021
lowerneck 2.19218 16.2747 24.5203
upperneck 8.97811 24.5716 -23.0029
head 8.48972 12.1173 -8.76252
rclavicle 9.18882e-014 4.13472e-014
rhumerus 0.217971 30.1387 -72.3084
rradius 126.759
rwrist -10.1342
rhand -30.8188 8.8633
rfingers 7.12502
rthumb -4.10816 -21.0768
lclavicle 9.18882e-014 4.13472e-014
lhumerus -6.25658 0.606742 54.4188
lradius 141.422
lwrist 0.6579
lhand -29.0594 5.03549
lfingers 7.12502
lthumb -2.40909 35.0016
rfemur -8.69206 7.63188 20.913
rtibia 24.7937
rfoot -29.058 -25.0688
rtoes -9.0538
lfemur -51.8077 6.4398 3.33158
ltibia 43.6269
lfoot -2.28144 25.9397
ltoes 25.2152
2180
root -0.952909 14.8628 -2.53184 21.7904 -36.2943 -7.5343
lowerback -1.70832 0.382088 4.53468
upperback -7.5423 0.417397 -2.06035
thorax -6.88299 -0.186063 -4.72152
lowerneck 1.93312 16.1372 24.3589
upperneck 9.51994 24.3731 -22.7204
head 8.59571 12.0021 -8.67319
rclavicle -3.54582e-014 -1.74931e-014
rhumerus 0.316522 30.3338 -72.535
rradius 126.581
rwrist -9.99914
rhand -30.8762 8.88908
rfingers 7.12502
rthumb -4.16357 -21.05
lclavicle -3.54582e-014 -1.74931e-014
lhumerus -6.82904 0.816375 54.1737
lradius 141.501
lwrist 0.692987
lhand -29.0021 4.632
lfingers 7.12502
lthumb -2.3537 34.5988
rfemur -8.33909 7.6946 21.0996
rtibia 24.5935
rfoot -29.2296 -25.6123
rtoes -8.89339
lfemur -52.2783 6.83809 2.90724
ltibia 43.8646
lfoot -1.80437 25.3801
ltoes 24.1366
2181
root -0.952025 14.8466 -2.49935 21.7561 -35.6483 -7.53169
lowerback -1.86563 0.472124 4.71679
upperback -7.63155 0.542175 -1.95975
thorax -6.87531 -0.133311 -4.72207
lowerneck 1.63507 15.9984 24.1876
upperneck 10.0681 24.1628 -22.4224
head 8.70576 11.8795 -8.57616
rclavicle 9.37767e-014 4.45278e-014
rhumerus 0.449073 30.5331 -72.776
rradius 126.405
rwrist -9.82366
rhand -31.0226 9.04282
rfingers 7.12502
rthumb -4.30501 -20.8934
lclavicle 9.37767e-014 4.45278e-014
lhumerus -7.31894 1.11542 53.8138
lradius 141.525
lwrist 0.829413
lhand -28.9324 4.22033
lfingers 7.12502
lthumb -2.28639 34.1878
rfemur -7.95807 7.72548 21.3076
rtibia 24.3907
rfoot -29.4112 -26.1482
rtoes -8.76895
lfemur -52.7786 7.23643 2.4769
ltibia 44.1236
lfoot -1.52691 24.8828
ltoes 23.0681
2182
root -0.950221 14.8276 -2.46286 21.7304 -34.9804 -7.5604
lowerback -2.02697 0.57741 4.93749
upperback -7.71464 0.68781 -1.85715
thorax -6.8562 -0.0719607 -4.74247
lowerneck 1.29941 15.8503 23.9802
upperneck 10.6191 23.9276 -22.0995
head 8.81053 11.7429 -8.46781
rclavicle -7.80975e-014 -1.90833e-014
rhumerus 0.610897 30.7125 -73.0131
rradius 126.253
rwrist -9.6705
rhand -31.1773 9.26386
rfingers 7.12502
rthumb -4.45437 -20.6693
lclavicle -7.80975e-014 -1.90833e-014
lhumerus -7.69163 1.50147 53.3488
lradius 141.47
lwrist 1.12888
lhand -28.8077 3.85688
lfingers 7.12502
lthumb -2.16598 33.8256
rfemur -7.55274 7.74137 21.5415
rtibia 24.1872
rfoot -29.6046 -26.6751
rtoes -8.66649
lfemur -53.304 7.64815 2.04007
ltibia 44.4064
lfoot -1.44099 24.4558
ltoes 21.9888
2183
root -0.947579 14.8063 -2.42216 21.7091 -34.2956 -7.61322
lowerback -2.19434 0.708571 5.19424
upperback -7.79623 0.867826 -1.75907
thorax -6.82754 0.00448299 -4.78844
lowerneck 0.929502 15.6803 23.7348
upperneck 11.1806 23.6513 -21.7501
head 8.90797 11.5852 -8.35134
rclavicle -4.72486e-014 7.95139e-015
rhumerus 0.776541 30.8561 -73.2467
rradius 126.126
rwrist -9.55155
rhand -31.3366 9.51559
rfingers 7.12502
rthumb -4.60818 -20.4143
lclavicle -4.72486e-014 7.95139e-015
lhumerus -8.02846 1.90223 52.8579
lradius 141.392
lwrist 1.55892
lhand -28.6236 3.40771
lfingers 7.12502
lthumb -1.98818 33.3782
rfemur -7.12369 7.73785 21.7938
rtibia 23.9845
rfoot -29.8132 -27.1851
rtoes -8.57062
lfemur -53.8488 8.06501 1.59028
ltibia 44.7151
lfoot -1.50391 24.0981
ltoes 20.8668
2184
root -0.944073 14.7827 -2.37716 21.692 -33.5959 -7.6816
lowerback -2.3809 0.861536 5.48167
upperback -7.86977 1.07539 -1.66855
thorax -6.77495 0.0935379 -4.85924
lowerneck 0.51899 15.493 23.4547
upperneck 11.7425 23.3396 -21.3815
head 8.99948 11.4086 -8.22745
rclavicle -5.1156e-014 1.35174e-014
rhumerus 0.961602 30.967 -73.4768
rradius 126.021
rwrist -9.48448
rhand -31.5091 9.80122
rfingers 7.12502
rthumb -4.77475 -20.125
lclavicle -5.1156e-014 1.35174e-014
lhumerus -8.32681 2.28058 52.3544
lradius 141.322
lwrist 2.06459
lhand -28.3898 3.08682
lfingers 7.12502
lthumb -1.76241 33.0593
rfemur -6.67763 7.71924 22.0569
rtibia 23.7859
rfoot -30.0389 -27.6844
rtoes -8.48593
lfemur -54.4156 8.48922 1.11441
ltibia 45.0523
lfoot -1.65693 23.7917
ltoes 19.7033
